<svg xmlns="http://www.w3.org/2000/svg" viewBox="0 0 200 200">
  <defs>
    <radialGradient id="bg-l" cx="50%" cy="45%" r="70%">
      <stop offset="0%" stop-color="#160800"/>
      <stop offset="100%" stop-color="#06051f"/>
    </radialGradient>
    <radialGradient id="glow-l" cx="55%" cy="42%" r="38%">
      <stop offset="0%" stop-color="#d35400" stop-opacity="0.55"/>
      <stop offset="100%" stop-color="#d35400" stop-opacity="0"/>
    </radialGradient>
    <radialGradient id="lantern-glow" cx="50%" cy="50%" r="50%">
      <stop offset="0%" stop-color="#f4d03f" stop-opacity="0.7"/>
      <stop offset="60%" stop-color="#d35400" stop-opacity="0.3"/>
      <stop offset="100%" stop-color="#d35400" stop-opacity="0"/>
    </radialGradient>
  </defs>
  <circle cx="100" cy="100" r="100" fill="url(#bg-l)"/>
  <!-- Warm lamp glow — the focal point -->
  <circle cx="118" cy="72" r="38" fill="url(#lantern-glow)"/>
  <circle cx="100" cy="110" r="55" fill="url(#glow-l)"/>
  <!-- Planet surface -->
  <ellipse cx="100" cy="162" rx="50" ry="13" fill="#250d02" opacity="0.85"/>
  <!-- Lamp post -->
  <line x1="118" y1="90" x2="118" y2="158" stroke="#c0824a" stroke-width="3" opacity="0.8"/>
  <!-- Lamp arm -->
  <path d="M118 90 Q110 80 110 72" stroke="#c0824a" stroke-width="2" fill="none" opacity="0.8"/>
  <!-- Lantern -->
  <rect x="104" y="62" width="14" height="18" rx="3" fill="#f4d03f" opacity="0.85"/>
  <rect x="104" y="62" width="14" height="18" rx="3" fill="none" stroke="#d35400" stroke-width="1" opacity="0.7"/>
  <!-- Flame inside lantern -->
  <ellipse cx="111" cy="71" rx="3" ry="5" fill="#fff" opacity="0.9"/>
  <!-- Figure (reaching up to the lamp) -->
  <path d="M80 125 Q98 118 105 125 L104 157 Q95 162 84 157 Z" fill="#5a2e08" opacity="0.85"/>
  <!-- Head -->
  <ellipse cx="92" cy="114" rx="10" ry="12" fill="#f4d090" opacity="0.8"/>
  <!-- Arm reaching up -->
  <path d="M105 122 Q114 108 118 98" stroke="#f4d090" stroke-width="3" fill="none" opacity="0.7" stroke-linecap="round"/>
  <!-- Stars (some lit, some dark - the endless task) -->
  <circle cx="35" cy="40" r="2" fill="#f4d03f" opacity="0.8"/>
  <circle cx="55" cy="28" r="1.5" fill="#f4d03f" opacity="0.6"/>
  <circle cx="160" cy="35" r="1.5" fill="#fff" opacity="0.3"/>
  <circle cx="172" cy="85" r="1" fill="#fff" opacity="0.25"/>
  <circle cx="30" cy="120" r="1" fill="#d35400" opacity="0.5"/>
</svg>
